#!OML:ASF Y:\EmotionMaleHayes\Project 1\Capture day 1\Session 1\Male1.ASF
:FULLY-SPECIFIED
:DEGREES
345
root -21.9967 16.5307 -10.6132 -183.194 46.843 -180.928
lowerback 6.43446 0.543539 -1.63732
upperback 8.29686 1.17972 4.00436
thorax 4.9274 0.636186 5.10466
lowerneck -20.3026 -6.69181 -3.12315
upperneck 23.9617 -12.0244 15.6429
head 12.6656 -3.2954 4.49088
rclavicle -3.10104e-014 0
rhumerus -19.9002 7.20373 -85.3263
rradius 28.6367
rwrist -1.9324
rhand -12.6188 -33.074
rfingers 7.12502
rthumb 13.4607 -62.619
lclavicle -3.10104e-014 0
lhumerus -33.9573 -18.9672 97.5955
lradius 25.4942
lwrist -13.729
lhand -4.42865 -24.7206
lfingers 7.12502
lthumb 21.3423 4.12408
rfemur -5.70906 -6.86191 26.0251
rtibia 23.8697
rfoot -22.5447 -7.71804
rtoes 18.918
lfemur 0.673538 6.25107 -12.8706
ltibia 59.3092
lfoot -3.95003 1.0338
ltoes -6.82742
346
root -21.9019 16.5534 -10.6746 -183.221 47.2446 -180.907
lowerback 6.41508 0.666399 -1.63257
upperback 8.2366 1.33442 3.94988
thorax 4.85836 0.712922 5.03802
lowerneck -20.1712 -6.84822 -3.11917
upperneck 23.9446 -12.2929 15.8708
head 12.6875 -3.38234 4.5337
rclavicle 2.46493e-014 7.95139e-015
rhumerus -19.6159 7.79661 -85.4587
rradius 28.8024
rwrist -0.848535
rhand -13.1241 -33.1048
rfingers 7.12502
rthumb 12.9736 -62.6815
lclavicle 2.46493e-014 7.95139e-015
lhumerus -33.8457 -18.5265 97.2882
lradius 25.2299
lwrist -14.2466
lhand -4.49018 -24.773
lfingers 7.12502
lthumb 21.2832 4.07839
rfemur -4.71303 -6.29916 26.2023
rtibia 22.9742
rfoot -22.6242 -7.81498
rtoes 19.1478
lfemur -0.495217 6.28568 -12.8539
ltibia 59.8732
lfoot -4.34425 1.64577
ltoes -5.21401
347
root -21.8095 16.5751 -10.7339 -183.033 47.6915 -180.674
lowerback 6.35331 0.750205 -1.56906
upperback 8.15566 1.43693 3.99554
thorax 4.79591 0.764077 5.04591
lowerneck -20.045 -6.92836 -3.15995
upperneck 23.966 -12.417 15.976
head 12.6986 -3.42795 4.56313
rclavicle 4.8901e-014 -7.95139e-014
rhumerus -19.3536 8.47792 -85.5567
rradius 29.0323
rwrist 0.385113
rhand -12.547 -33.6732
rfingers 7.12502
rthumb 13.5299 -63.2137
lclavicle 4.8901e-014 -7.95139e-014
lhumerus -33.6885 -17.9001 97.0274
lradius 24.9848
lwrist -14.6234
lhand -4.59185 -24.8823
lfingers 7.12502
lthumb 21.1855 3.98011
rfemur -3.84978 -5.82078 26.5356
rtibia 22.1657
rfoot -22.6848 -7.75559
rtoes 19.6039
lfemur -1.72732 6.30943 -12.6818
ltibia 60.3052
lfoot -5.11083 2.01814
ltoes -5.5307
348
root -21.7183 16.597 -10.792 -182.883 48.183 -180.432
lowerback 6.36689 0.87027 -1.41045
upperback 8.06481 1.59121 3.93907
thorax 4.67874 0.849468 4.88756
lowerneck -19.8603 -7.02401 -3.12838
upperneck 23.9461 -12.5928 16.1602
head 12.6915 -3.48096 4.60169
rclavicle 3.18055e-014 1.59028e-014
rhumerus -19.2101 8.83564 -85.8752
rradius 29.228
rwrist 1.28939
rhand -12.6013 -33.8484
rfingers 7.12502
rthumb 13.4775 -63.3923
lclavicle 3.18055e-014 1.59028e-014
lhumerus -33.7802 -17.756 96.7807
lradius 25.033
lwrist -14.5517
lhand -5.04774 -24.4964
lfingers 7.12502
lthumb 20.7475 4.41447
rfemur -2.96456 -5.42296 26.8483
rtibia 21.3877
rfoot -22.6341 -7.56704
rtoes 19.5507
lfemur -2.86109 6.26815 -12.4746
ltibia 60.6142
lfoot -6.13611 2.02111
ltoes -3.47638
349
root -21.6283 16.617 -10.8514 -182.981 48.6559 -180.453
lowerback 6.41954 0.998566 -1.41073
upperback 8.00145 1.754 3.83039
thorax 4.56801 0.931916 4.76373
lowerneck -19.7219 -7.15485 -3.18152
upperneck 24.017 -12.8255 16.4258
head 12.7526 -3.54616 4.68145
rclavicle 4.57205e-014 4.77083e-015
rhumerus -19.1572 9.30254 -86.2215
rradius 29.4846
rwrist 1.49392
rhand -13.5294 -33.3363
rfingers 7.12502
rthumb 12.5828 -62.9373
lclavicle 4.57205e-014 4.77083e-015
lhumerus -33.8368 -17.5388 96.4788
lradius 25.0604
lwrist -14.5256
lhand -5.58491 -24.3461
lfingers 7.12502
lthumb 20.2313 4.62031
rfemur -2.05713 -5.11523 26.9177
rtibia 20.676
rfoot -22.515 -7.34428
rtoes 19.0628
lfemur -3.94442 6.14894 -12.5088
ltibia 61.0892
lfoot -7.3758 2.01281
ltoes -1.19131
350
root -21.5429 16.6338 -10.9134 -183.009 49.1484 -180.44
lowerback 6.48202 1.12886 -1.29466
upperback 7.92559 1.92275 3.70244
thorax 4.44176 1.0239 4.55249
lowerneck -19.7173 -7.35498 -3.40457
upperneck 24.2274 -13.1676 16.8373
head 12.9421 -3.63796 4.83541
rclavicle 5.56597e-014 -1.35174e-014
rhumerus -19.131 9.72113 -86.5546
rradius 29.7827
rwrist 1.77864
rhand -13.9905 -32.5445
rfingers 7.12502
rthumb 12.1382 -62.1724
lclavicle 5.56597e-014 -1.35174e-014
lhumerus -33.6927 -16.9305 95.9522
lradius 24.9004
lwrist -14.7247
lhand -5.80527 -24.7151
lfingers 7.12502
lthumb 20.0195 4.2736
rfemur -1.21904 -4.83529 26.9862
rtibia 19.9695
rfoot -22.1592 -6.98918
rtoes 18.4539
lfemur -5.09904 6.01899 -12.6366
ltibia 61.4554
lfoot -8.46946 2.18677
ltoes -2.23768
351
root -21.4566 16.6476 -10.9748 -182.745 49.6892 -180.127
lowerback 6.49422 1.20148 -0.986707
upperback 7.83318 2.01977 3.63894
thorax 4.33684 1.08757 4.30406
lowerneck -19.6773 -7.35921 -3.32011
upperneck 24.2992 -13.1972 16.7981
head 12.957 -3.64321 4.80422
rclavicle -8.74653e-015 -4.85035e-014
rhumerus -18.9369 10.4833 -86.8933
rradius 29.992
rwrist 2.1271
rhand -14.9238 -31.852
rfingers 7.12502
rthumb 11.2382 -61.5309
lclavicle -8.74653e-015 -4.85035e-014
lhumerus -33.606 -16.2936 95.4624
lradius 24.8567
lwrist -14.5752
lhand -6.20282 -24.8083
lfingers 7.12502
lthumb 19.6374 4.2199
rfemur -0.469582 -4.65629 27.2508
rtibia 19.3042
rfoot -22.1881 -6.4759
rtoes 18.7541
lfemur -6.29951 5.90181 -12.49
ltibia 61.0871
lfoot -8.83828 2.66134
ltoes -3.23903
352
root -21.3671 16.6596 -11.0339 -182.523 50.2573 -179.913
lowerback 6.42239 1.31735 -0.788757
upperback 7.7462 2.16808 3.52763
thorax 4.28095 1.16985 4.06939
lowerneck -19.5845 -7.44658 -3.37717
upperneck 24.3554 -13.3575 17.0047
head 13.0092 -3.68636 4.87348
rclavicle 5.28767e-014 -5.64548e-014
rhumerus -18.6497 10.7248 -87.1606
rradius 29.9692
rwrist 1.44204
rhand -16.8427 -29.2334
rfingers 7.12502
rthumb 9.38709 -59.0044
lclavicle 5.28767e-014 -5.64548e-014
lhumerus -33.5969 -16.0183 95.0509
lradius 24.9418
lwrist -14.071
lhand -6.96853 -24.5493
lfingers 7.12502
lthumb 18.9011 4.55242
rfemur 0.212802 -4.53642 27.4327
rtibia 18.7328
rfoot -22.1334 -5.92863
rtoes 20.6825
lfemur -7.55765 5.95357 -12.3592
ltibia 60.6327
lfoot -8.86076 3.17655
ltoes -5.73941
353
root -21.2814 16.6736 -11.0941 -182.676 50.8233 -180.138
lowerback 6.43362 1.45538 -0.81426
upperback 7.65536 2.33899 3.30296
thorax 4.17182 1.25463 3.83836
lowerneck -19.5477 -7.52654 -3.49595
upperneck 24.5263 -13.5306 17.3239
head 13.1408 -3.71176 5.00422
rclavicle 4.07509e-014 6.04305e-014
rhumerus -18.4226 10.4206 -87.396
rradius 30.9759
rwrist 2.66259
rhand -13.801 -33.3589
rfingers 7.12502
rthumb 12.321 -62.9759
lclavicle 4.07509e-014 6.04305e-014
lhumerus -33.4056 -15.3292 94.4196
lradius 24.8311
lwrist -13.9813
lhand -7.71391 -24.5474
lfingers 7.12502
lthumb 18.1841 4.6226
rfemur 0.995132 -4.30655 27.303
rtibia 18.0664
rfoot -22.2289 -5.55173
rtoes 21.2539
lfemur -8.74676 5.95551 -12.6155
ltibia 60.2755
lfoot -9.3175 3.10118
ltoes -12.9561
354
root -21.2008 16.6877 -11.156 -182.74 51.4101 -180.269
lowerback 6.5078 1.58248 -0.691847
upperback 7.53295 2.50056 3.09947
thorax 4.00074 1.34232 3.5432
lowerneck -19.5386 -7.50775 -3.16311
upperneck 24.6892 -13.5718 17.1345
head 13.1669 -3.70576 4.87189
rclavicle -9.50191e-014 2.22639e-014
rhumerus -18.4439 11.0095 -87.7853
rradius 31.2263
rwrist 2.18703
rhand -13.082 -32.6032
rfingers 7.12502
rthumb 13.0141 -62.1772
lclavicle -9.50191e-014 2.22639e-014
lhumerus -33.1242 -14.2933 93.713
lradius 24.5923
lwrist -14.2405
lhand -8.26508 -24.7432
lfingers 7.12502
lthumb 17.6538 4.47532
rfemur 1.78312 -4.0323 27.2613
rtibia 17.3335
rfoot -22.2764 -5.26741
rtoes 20.8069
lfemur -9.90428 5.82883 -12.8128
ltibia 59.8527
lfoot -9.78116 3.09523
ltoes -12.1196
355
root -21.1213 16.6972 -11.2151 -182.084 51.9944 -179.639
lowerback 6.45648 1.67173 -0.105399
upperback 7.37524 2.62492 3.02665
thorax 3.87946 1.42891 3.1294
lowerneck -19.439 -7.50304 -3.05369
upperneck 24.79 -13.577 17.0194
head 13.167 -3.70878 4.81258
rclavicle -6.69904e-014 -4.05521e-014
rhumerus -18.5391 11.8703 -88.2363
rradius 31.5957
rwrist 2.23133
rhand -13.0614 -32.405
rfingers 7.12502
rthumb 13.034 -61.9778
lclavicle -6.69904e-014 -4.05521e-014
lhumerus -33.0839 -13.7748 93.2147
lradius 24.6765
lwrist -13.9797
lhand -8.76281 -24.7457
lfingers 7.12502
lthumb 17.1747 4.5153
rfemur 2.36457 -3.75379 27.804
rtibia 16.6746
rfoot -22.2524 -5.09339
rtoes 21.2334
lfemur -11.2788 5.66265 -12.4226
ltibia 59.4143
lfoot -10.2413 2.95684
ltoes -11.3808
356
root -21.0398 16.703 -11.2697 -181.438 52.5753 -179.006
lowerback 6.39589 1.82589 0.430673
upperback 7.23276 2.83522 2.91653
thorax 3.77969 1.55561 2.70434
lowerneck -19.2565 -7.55318 -3.00433
upperneck 24.7635 -13.6592 17.0596
head 13.1293 -3.74204 4.80706
rclavicle 2.42517e-014 -7.95139e-016
rhumerus -18.6076 12.5484 -88.801
rradius 32.1832
rwrist 1.75781
rhand -13.4622 -33.0759
rfingers 7.12502
rthumb 12.6476 -62.6729
lclavicle 2.42517e-014 -7.95139e-016
lhumerus -33.1601 -13.896 92.83
lradius 24.966
lwrist -13.1862
lhand -9.32018 -24.6378
lfingers 7.12502
lthumb 16.6382 4.66901
rfemur 2.86911 -3.58922 28.2851
rtibia 16.2082
rfoot -22.3434 -4.71193
rtoes 22.2274
lfemur -12.6593 5.5412 -12
ltibia 58.8718
lfoot -10.5547 2.92716
ltoes -13.8282
357
root -20.9559 16.709 -11.3263 -181.232 53.2209 -178.774
lowerback 6.41256 1.85615 0.430828
upperback 7.24148 2.87395 2.96683
thorax 3.77563 1.57348 2.75473
lowerneck -19.3559 -7.48639 -3.09667
upperneck 24.8076 -13.5094 16.8436
head 13.1297 -3.71749 4.76157
rclavicle -1.13506e-013 -7.95139e-016
rhumerus -18.3395 13.8864 -89.0728
rradius 32.5306
rwrist 1.04528
rhand -14.2627 -33.0292
rfingers 7.12502
rthumb 11.8758 -62.6724
lclavicle -1.13506e-013 -7.95139e-016
lhumerus -32.8102 -12.8229 92.3827
lradius 24.9572
lwrist -12.8969
lhand -10.0104 -24.7735
lfingers 7.12502
lthumb 15.9736 4.58788
rfemur 3.52371 -3.48792 28.382
rtibia 15.7874
rfoot -22.4836 -3.97601
rtoes 22.5699
lfemur -13.7819 5.51786 -11.8314
ltibia 58.1413
lfoot -10.3525 3.09058
ltoes -17.3252
358
root -20.8733 16.7153 -11.3826 -180.976 53.794 -178.431
lowerback 6.5492 1.97906 0.759963
upperback 7.14533 3.04601 2.81656
thorax 3.61427 1.67463 2.39856
lowerneck -19.191 -7.51987 -2.8904
upperneck 24.7875 -13.5749 16.712
head 13.0654 -3.75124 4.66195
rclavicle -7.55382e-015 -3.4191e-014
rhumerus -18.3078 14.475 -89.5265
rradius 32.8545
rwrist 0.450979
rhand -15.1342 -32.5943
rfingers 7.12502
rthumb 11.0353 -62.2842
lclavicle -7.55382e-015 -3.4191e-014
lhumerus -32.594 -12.3072 91.8073
lradius 24.9382
lwrist -12.5672
lhand -10.5571 -24.9965
lfingers 7.12502
lthumb 15.4471 4.40632
rfemur 4.31805 -3.2558 28.6111
rtibia 15.1443
rfoot -21.9108 -3.56034
rtoes 24.512
lfemur -14.8434 5.40615 -11.5824
ltibia 57.3722
lfoot -9.79991 3.13555
ltoes -21.0511
